<svg width="996" height="793" viewBox="0 0 996 793" fill="none" xmlns="http://www.w3.org/2000/svg">
<g id="undraw_game_day_ucx9 1" clip-path="url(#clip0_1_957)">
<g id="right-arm">
<path id="Vector" d="M765.14 440.56C773.14 439.76 780.31 435.19 786.96 430.56C795.42 424.707 803.683 418.587 811.75 412.2C813.93 410.49 816.21 408.56 816.9 405.88C817.52 403.47 816.72 400.93 815.9 398.57C811.96 387.023 807.84 375.54 803.54 364.12C800.965 355.916 796.577 348.397 790.7 342.12C782.967 333.02 775.1 324.037 767.1 315.17C759.71 306.99 757.78 294.96 753.27 284.9C752.876 283.802 752.224 282.814 751.37 282.02C750.205 281.291 748.842 280.942 747.47 281.02C741.499 280.758 735.537 281.704 729.94 283.8C726.07 285.25 722.03 287.73 721.11 291.8C720.11 296.18 723.19 300.34 726.11 303.8C728.087 306.363 730.33 308.709 732.8 310.8C736.23 313.51 740.36 315.19 743.93 317.72C746.826 319.908 749.505 322.369 751.93 325.07C755.51 328.82 759.14 332.62 761.58 337.2C763.79 341.36 764.93 345.99 766.05 350.56L772.32 376.27L775.76 390.33C775.881 390.627 775.942 390.944 775.94 391.265C775.938 391.585 775.873 391.902 775.749 392.198C775.624 392.493 775.443 392.761 775.215 392.986C774.987 393.211 774.717 393.389 774.42 393.51C770.066 396.844 766.257 400.835 763.13 405.34C761.899 406.94 761.008 408.774 760.51 410.73C760.233 412.652 760.287 414.607 760.67 416.51C761.87 424.76 763.43 432.42 765.14 440.56Z" fill="#BE6F72"/>
<path id="Vector_2" d="M727.28 404.78C729.47 402.3 732.93 401.49 736.17 400.78L744.67 398.99C746.27 398.59 747.911 398.372 749.56 398.34C750.77 398.34 751.96 398.58 753.16 398.56C754.994 398.447 756.801 398.06 758.52 397.41L773.52 392.58C768.52 399.52 767.92 408.58 767.84 417.11C767.767 420.781 767.894 424.453 768.22 428.11C768.63 432.03 769.43 435.98 768.87 439.89C768.23 444.42 765.87 449.33 768.21 453.26C769.44 455.33 771.72 456.52 773.91 457.53C758.893 460.684 744.552 466.47 731.55 474.62C728.46 476.56 725.4 478.67 721.9 479.71C719.629 480.301 717.304 480.66 714.96 480.78L707.52 481.43C706.24 463.7 711.73 446.27 717.15 429.34C718.57 424.93 719.98 420.51 721.71 416.2C723.24 412.37 724.51 407.92 727.28 404.78Z" fill="black"/>
</g>
<g id="man">
<path id="Vector_3" opacity="0.2" d="M469.26 548.92C469.13 548.74 468.95 548.54 468.76 548.6V548.81H469.16" fill="black"/>
<path id="Vector_4" opacity="0.2" d="M481.26 548.32C481.16 548.52 481.07 548.77 481.26 548.91L481.43 548.8L481.26 548.45" fill="black"/>
<path id="Vector_5" opacity="0.2" d="M482.22 547.74C482.09 547.56 481.91 547.36 481.72 547.42V547.63H482.12" fill="black"/>
<path id="Vector_6" opacity="0.2" d="M486.04 548.32C486.14 548.52 486.23 548.77 486.04 548.91L485.87 548.8L486.04 548.45" fill="black"/>
<path id="Vector_7" opacity="0.2" d="M485.08 547.74C485.21 547.56 485.39 547.36 485.58 547.42V547.63H485.18" fill="black"/>
<path id="Vector_8" d="M670.79 396.57C670.682 397.367 670.78 398.179 671.074 398.928C671.368 399.677 671.848 400.339 672.47 400.85C674.964 403.414 677.805 405.615 680.91 407.39C681.541 407.682 682.091 408.125 682.51 408.68C682.753 409.135 682.9 409.636 682.94 410.15C684.1 418.9 680.54 427.62 675.88 435.15C672.994 439.888 669.516 444.24 665.53 448.1C662.031 451.413 658.09 454.226 653.82 456.46C646.66 460.21 638.47 462.28 630.43 461.46C622.39 460.64 614.55 456.62 609.82 450.07C604.28 442.4 603.5 432.36 603.37 422.9C603.28 417.26 603.37 411.39 605.97 406.36C606.801 404.562 608.112 403.029 609.76 401.93C612.14 400.48 615.16 400.43 617.55 399C618.559 398.384 619.415 397.546 620.051 396.55C620.687 395.553 621.087 394.425 621.22 393.25C621.32 392.25 621.29 391.25 621.98 390.55C622.491 390.147 623.111 389.907 623.76 389.86L643.36 386.53C650.44 385.34 657.65 384.14 664.85 384.7C667.23 384.89 670.73 384.65 671.43 387.41C672.13 390.17 670.83 393.83 670.79 396.57Z" fill="#BE6F72"/>
<path id="Vector_9" opacity="0.05" d="M670.79 396.57C670.682 397.367 670.78 398.179 671.074 398.928C671.368 399.677 671.848 400.339 672.47 400.85C674.964 403.414 677.805 405.615 680.91 407.39C681.541 407.682 682.091 408.125 682.51 408.68C682.753 409.135 682.9 409.636 682.94 410.15C684.1 418.9 680.54 427.62 675.88 435.15C672.994 439.888 669.516 444.24 665.53 448.1C662.031 451.413 658.09 454.226 653.82 456.46C646.66 460.21 638.47 462.28 630.43 461.46C622.39 460.64 614.55 456.62 609.82 450.07C604.28 442.4 603.5 432.36 603.37 422.9C603.28 417.26 603.37 411.39 605.97 406.36C606.801 404.562 608.112 403.029 609.76 401.93C612.14 400.48 615.16 400.43 617.55 399C618.559 398.384 619.415 397.546 620.051 396.55C620.687 395.553 621.087 394.425 621.22 393.25C621.32 392.25 621.29 391.25 621.98 390.55C622.491 390.147 623.111 389.907 623.76 389.86L643.36 386.53C650.44 385.34 657.65 384.14 664.85 384.7C667.23 384.89 670.73 384.65 671.43 387.41C672.13 390.17 670.83 393.83 670.79 396.57Z" fill="black"/>
<path id="Vector_10" d="M658.82 758.76C661.82 763.84 666.3 767.87 669.46 772.84C671.37 775.84 672.78 779.68 671.4 782.98C670.24 785.74 667.4 787.41 664.69 788.62C657.266 791.862 649.127 793.12 641.07 792.27C639.6 792.15 638.151 791.841 636.76 791.35C632.3 789.64 629.59 785.11 627.84 780.67C627.27 778.937 626.501 777.276 625.55 775.72C623.55 772.93 620.37 771.4 617.55 769.54C614.73 767.68 611.91 764.96 611.86 761.54C611.971 760.054 612.233 758.583 612.64 757.15C613.14 754.46 612.82 751.69 612.87 748.96C612.937 745.833 613.494 742.735 614.52 739.78C614.763 738.839 615.282 737.993 616.01 737.35C616.664 736.928 617.407 736.664 618.18 736.58C627.645 734.863 637.384 735.456 646.57 738.31C648.39 738.88 651.87 739.51 653.21 740.87C654.34 742.01 654.21 743.48 654.41 745.02C654.981 749.841 656.478 754.507 658.82 758.76V758.76Z" fill="#3F3D56"/>
<path id="Vector_11" d="M593.85 741.64C595.29 752.04 596.75 762.49 599.97 772.48C600.53 774.21 601.13 776.12 600.4 777.78C599.93 778.681 599.242 779.451 598.4 780.02C591.29 785.58 581.29 785.81 572.5 783.79C567.446 782.628 562.565 780.813 557.98 778.39C557.46 778.148 556.992 777.809 556.6 777.39C556.164 776.817 555.869 776.149 555.74 775.44C552.499 762.611 554.131 749.036 560.32 737.34C561.213 735.48 562.455 733.81 563.98 732.42C566.19 730.59 569.07 729.87 571.85 729.2C578.22 727.67 584.85 725.41 591.32 724.6C593.2 729.66 593.11 736.27 593.85 741.64Z" fill="#3F3D56"/>
<path id="Vector_12" d="M633.17 617.91C618.47 618.42 604.02 622.17 589.31 622.5C582.31 622.65 575 621.91 569.31 617.91C564.68 614.67 561.67 609.66 558.8 604.79C556.5 600.89 554.18 596.93 552.87 592.58C550.57 584.93 551.59 576.72 552.87 568.83C553.87 562.69 555.25 556.06 559.95 551.98C562.77 549.52 566.45 548.32 570.04 547.26C587.04 542.26 604.63 539.16 622.14 536.1C627.34 535.18 632.56 534.27 637.83 533.86C650.733 532.857 663.691 534.913 675.65 539.86C681.02 542.1 686.31 545.06 689.79 549.72C693.88 555.23 694.95 562.53 694.14 569.35C693.33 576.17 690.82 582.64 688.33 589.04L680.33 609.73C678.64 614.09 677.56 621.9 672.21 622.88C667.11 623.82 659.21 620.04 654.08 619.24C647.155 618.254 640.164 617.809 633.17 617.91V617.91Z" fill="#F86D70"/>
<path id="Vector_13" d="M643.93 404.21C666.06 404.21 684 386.27 684 364.14C684 342.01 666.06 324.07 643.93 324.07C621.8 324.07 603.86 342.01 603.86 364.14C603.86 386.27 621.8 404.21 643.93 404.21Z" fill="#BE6F72"/>
<path id="Vector_14" d="M641.02 448.62L658.41 428.8C659.95 426.968 661.6 425.232 663.35 423.6C665.81 421.41 668.71 419.53 670.24 416.6C672.63 412.03 670.96 406.45 670.74 401.4C670.698 400.914 670.792 400.426 671.011 399.99C671.23 399.554 671.565 399.187 671.98 398.93C673.13 398.28 673.98 399.05 674.9 399.49C677.13 400.55 679.9 399.69 682.15 400.65C683.8 401.35 684.92 402.88 686.22 404.11C687.52 405.34 689.4 406.35 691.06 405.67C691.92 405.31 692.56 404.55 693.41 404.15C695.48 403.15 697.84 404.68 700.13 404.68C702.13 404.68 703.96 403.52 705.86 402.84C707.956 402.221 710.125 401.885 712.31 401.84L731.94 400.47C732.32 415.02 729.31 429.47 725.81 443.59C722.25 457.97 718.62 472.54 711.43 485.5C708.29 491.15 704.48 496.5 703.43 503.18C703.143 505.106 703.207 507.067 703.62 508.97C703.737 509.799 704.083 510.578 704.62 511.22C705.55 517.98 704.16 525.37 700.1 530.86C697.9 533.86 695.1 536.35 693.1 539.5C691.1 542.65 690.1 546.81 691.96 550.04C685.78 552.04 679.32 548.71 673.03 547.09C659.03 543.49 644.34 548.5 631.54 555.15C627.25 557.38 622.87 559.86 618.04 560.15C609.38 560.72 601.98 554.36 593.75 551.61C579.91 546.99 565.07 552.83 550.75 555.55C548.75 555.94 546.43 556.23 544.65 555.13C542.87 554.03 542.07 551.68 541.85 549.53C541.02 541.53 545.37 534.04 547.65 526.33C550.881 514.923 549.665 502.716 544.25 492.17C541.097 486.243 539.966 479.449 541.03 472.82C541.1 472.42 541.16 472.02 541.22 471.63L546.24 439.27C546.683 435.47 547.521 431.726 548.74 428.1C551.74 419.99 558.54 413.7 566.13 409.53C573.72 405.36 582.13 403.06 590.54 400.85C597.465 398.852 604.527 397.364 611.67 396.4C612.67 396.29 613.89 396.26 614.55 397.04C614.911 397.548 615.1 398.157 615.09 398.78C615.34 402.78 613.79 406.62 613.61 410.59C613.37 416.25 615.93 421.66 618.99 426.43C624.86 435.53 631.75 442.99 641.02 448.62Z" fill="black"/>
<path id="Vector_15" d="M613.19 461.32C611.486 461.497 609.77 461.537 608.06 461.44C607.765 461.412 607.47 461.501 607.24 461.688C607.01 461.875 606.863 462.145 606.83 462.44L603.55 486.99C603.309 488.77 602.586 490.451 601.46 491.85C600.529 492.965 599.836 494.259 599.425 495.652C599.014 497.045 598.893 498.508 599.07 499.95V541.64C599.07 541.64 598.86 547.2 603.14 547.2C608.25 547.847 613.42 547.847 618.53 547.2C618.53 547.2 621.95 546.56 621.95 541.43V500.43C622.215 498.997 622.163 497.523 621.799 496.112C621.434 494.7 620.766 493.386 619.84 492.26C618.767 490.85 618.078 489.186 617.84 487.43L614.4 462.27C614.356 461.988 614.206 461.733 613.982 461.557C613.757 461.381 613.474 461.296 613.19 461.32V461.32Z" fill="#3F3D56"/>
<path id="Vector_16" d="M612.19 500.67H609.05C604.19 500.67 600.25 504.61 600.25 509.47V526.94C600.25 531.8 604.19 535.74 609.05 535.74H612.19C617.05 535.74 620.99 531.8 620.99 526.94V509.47C620.99 504.61 617.05 500.67 612.19 500.67Z" fill="black"/>
<path id="Vector_17" opacity="0.25" d="M612.19 500.67H609.05C604.19 500.67 600.25 504.61 600.25 509.47V526.94C600.25 531.8 604.19 535.74 609.05 535.74H612.19C617.05 535.74 620.99 531.8 620.99 526.94V509.47C620.99 504.61 617.05 500.67 612.19 500.67Z" fill="black"/>
<path id="Vector_18" d="M537.17 522.55C536.28 527.36 535.8 532.4 537.17 537.08C538.54 541.76 542.25 546.08 547.06 546.91C550.35 547.51 553.72 546.51 556.76 545.11C559.8 543.71 562.65 541.91 565.76 540.78C572.49 538.36 580.03 539.21 586.81 541.48C588.963 542.302 591.164 542.994 593.4 543.55C595.352 543.89 597.329 544.071 599.31 544.09C606.73 544.38 614.26 544.66 621.49 542.96C623.552 542.588 625.494 541.724 627.15 540.44C628.786 538.839 629.957 536.824 630.54 534.61C632.29 529.16 632.54 522.83 629.39 518.04C627.11 514.55 623.29 512.29 619.29 511.04C615.247 509.987 611.096 509.406 606.92 509.31C605.019 508.937 603.054 509.073 601.222 509.703C599.391 510.334 597.759 511.436 596.49 512.9L591.4 517.44C590.42 518.419 589.284 519.23 588.04 519.84C586.964 520.238 585.835 520.477 584.69 520.55C580.934 520.945 577.156 521.095 573.38 521C573 518.71 574.38 516.45 574.26 514.14C574.149 512.986 573.768 511.874 573.148 510.894C572.528 509.914 571.686 509.094 570.69 508.5C568.685 507.333 566.469 506.575 564.17 506.27C559.05 505.33 553.66 505.07 548.72 506.71C541.07 509.33 538.54 515.15 537.17 522.55Z" fill="#BE6F72"/>
<path id="Vector_19" d="M632.66 557.67C653.15 550.05 676.54 547.12 696.66 555.67C700.12 557.15 703.87 559.54 704.22 563.29C704.39 565.02 703.77 566.72 703.42 568.42C702.32 573.78 703.87 579.29 704.22 584.76C704.57 590.23 703.22 596.56 698.36 599.14C695.8 620.74 690.81 641.21 681.52 660.87C679.943 663.831 678.714 666.966 677.86 670.21C677.15 673.51 677.3 676.93 677.16 680.3C676.73 690.57 673.59 700.51 670.48 710.3C669.87 712.429 669.074 714.501 668.1 716.49C665.87 720.69 662.1 723.88 659.46 727.81C656.82 731.74 655.28 737.27 657.94 741.17C659.52 743.47 653.94 744.92 651.13 744.97C638.901 745.185 626.67 744.684 614.5 743.47C614.012 743.512 613.52 743.457 613.054 743.307C612.588 743.158 612.155 742.917 611.783 742.598C611.411 742.28 611.106 741.891 610.885 741.453C610.665 741.016 610.534 740.539 610.5 740.05C609.3 735.8 608.12 731.24 609.5 727.05C610.24 724.83 611.7 722.76 611.65 720.42C611.65 718.42 610.43 716.54 609.95 714.55C608.48 708.42 613.7 702.99 617.54 697.99C625.54 687.53 628.72 674.23 631.61 661.36C635.39 644.567 639.08 627.753 642.68 610.92C639.58 613.36 639.92 617.42 636.94 620C633.42 623 627.52 621.12 624.94 617.3C622.36 613.48 622.1 608.52 622.21 603.87C622.54 588.4 627.27 572.18 632.66 557.67Z" fill="#F86D70"/>
<path id="Vector_20" d="M605.48 563.34C600.54 551.2 588.94 541.65 575.94 540.53C562.94 539.41 549.21 547.67 545.35 560.19C544.518 563.192 543.969 566.265 543.71 569.37C540.24 600.37 540.24 632.22 547.95 662.49C549.53 668.73 551.45 674.93 552.01 681.33C552.57 687.73 551.63 694.52 547.95 699.8C546.95 701.28 545.65 702.68 545.16 704.42C544.59 706.42 545.1 708.5 545.62 710.5L552.09 735.69C552.377 737.307 553.064 738.827 554.09 740.11C555.98 742.11 559.09 742.2 561.88 741.92C569.22 741.18 576.361 739.088 582.94 735.75C588.94 732.68 595.1 727.39 594.74 720.63C594.65 718.94 594.15 717.19 594.74 715.63C595.346 714.497 596.148 713.481 597.11 712.63C600.62 708.73 601.42 702.98 600.47 697.83C599.52 692.68 597.02 687.95 594.56 683.33C592.1 678.71 595.1 672.66 595.89 667.63C598.63 650.21 592.99 631.93 597.89 614.99C601.49 618.12 607.15 620.26 610.82 617.22C614.09 614.5 613.7 609.46 613.02 605.22C610.74 591.21 610.82 576.48 605.48 563.34Z" fill="#F86D70"/>
<path id="Vector_21" d="M608.86 368.14C610.17 369.46 610.57 371.94 612.15 372.74C613.73 373.54 615.78 371.85 616.72 369.91C618.28 366.71 618.57 362.91 618.72 359.19C618.87 355.47 619.01 351.7 620.27 348.32C621.53 344.94 624.27 342.02 627.39 342.12C629.45 342.19 631.3 343.51 633.11 344.67C638.429 348.113 644.344 350.534 650.55 351.81C652.33 352.16 654.22 352.4 655.86 351.52C656.733 351.011 657.407 350.219 657.771 349.276C658.134 348.333 658.166 347.294 657.86 346.33C662.15 345.33 666.86 349.04 667.66 354.14C667.91 355.73 667.83 357.38 668.04 358.99C668.69 363.99 672.53 368.19 676.81 368.55C677.633 368.655 678.468 368.501 679.2 368.11C680.35 367.41 680.97 365.94 681.52 364.56C683.82 358.81 686.15 352.92 686.69 346.56C686.902 342.936 686.818 339.301 686.44 335.69C686.09 331.25 685.69 326.63 683.73 322.83C680.73 316.97 674.73 314.41 669.19 312.41C663.65 310.41 657.86 308.51 652.14 306.8C646.777 305.031 641.232 303.87 635.61 303.34C625.795 302.779 616.075 305.522 608 311.13C604.51 313.388 601.536 316.356 599.27 319.84C596.858 323.644 595.801 328.15 596.27 332.63C596.73 336.11 598.27 339.25 599.06 342.63C600.34 348.14 599.57 353.99 598.97 359.63C598.579 361.89 598.667 364.207 599.23 366.43C599.96 368.66 601.73 370.34 603.59 369.25C605.38 368.34 606.82 366.1 608.86 368.14Z" fill="#3F3D56"/>
<path id="Vector_22" d="M540.35 479.97C539.518 483.194 538.933 486.477 538.6 489.79C538.43 492.04 538.5 494.29 538.31 496.54C537.6 504.91 533.43 512.87 533.79 521.27C536.367 520.097 539.224 519.677 542.03 520.06C541.29 517.48 543.16 514.71 545.59 513.57C548.02 512.43 550.83 512.5 553.51 512.69C561.01 513.22 568.51 514.45 575.36 517.63C575.505 517.729 575.67 517.794 575.843 517.82C576.016 517.846 576.193 517.832 576.36 517.78C576.79 517.57 576.78 516.97 576.78 516.5C576.72 512.42 581 509.59 582.02 505.64C582.75 502.79 581.68 499.83 580.9 496.99C577.9 486.31 579.06 474.99 578.18 463.93C577.68 457.67 576.18 450.93 571.34 446.93C569.113 445.24 566.459 444.206 563.676 443.945C560.893 443.683 558.092 444.205 555.59 445.45C544.02 451.18 542.87 469.03 540.35 479.97Z" fill="black"/>
</g>
</g>
<defs>
<clipPath id="clip0_1_957">
<rect width="995.89" height="792.55" fill="white"/>
</clipPath>
</defs>
</svg>
